<?xml version="1.0" encoding="UTF-8"?>
<svg xmlns="http://www.w3.org/2000/svg" xmlns:xlink="http://www.w3.org/1999/xlink" viewBox="0 0 64 64" width="64px" height="64px">
<g id="surface37098928">
<path style=" stroke:none;fill-rule:nonzero;fill:rgb(100%,29.019609%,34.117648%);fill-opacity:1;" d="M 51.199219 8.535156 L 12.800781 8.535156 C 10.441406 8.535156 8.535156 10.441406 8.535156 12.800781 L 8.535156 51.199219 C 8.535156 53.558594 10.441406 55.464844 12.800781 55.464844 L 51.199219 55.464844 C 53.558594 55.464844 55.464844 53.558594 55.464844 51.199219 L 55.464844 12.800781 C 55.464844 10.441406 53.558594 8.535156 51.199219 8.535156 Z M 32 43.476562 C 32 47.269531 29.675781 49.394531 25.8125 49.394531 C 22 49.394531 19.570312 47.164062 19.570312 43.558594 L 23.703125 43.558594 C 23.710938 44.894531 24.511719 45.742188 25.742188 45.742188 C 27.011719 45.742188 27.691406 44.941406 27.691406 43.441406 L 27.691406 31.996094 L 32 31.996094 Z M 43.691406 49.394531 C 39.40625 49.394531 36.710938 47.375 36.636719 44.109375 L 40.746094 44.109375 C 40.851562 45.34375 42.082031 46.128906 43.867188 46.128906 C 45.476562 46.128906 46.582031 45.355469 46.582031 44.238281 C 46.582031 43.300781 45.839844 42.792969 43.902344 42.410156 L 41.675781 41.960938 C 38.574219 41.375 36.980469 39.6875 36.980469 37.023438 C 36.980469 33.710938 39.632812 31.539062 43.714844 31.539062 C 47.683594 31.539062 50.429688 33.6875 50.5 36.820312 L 46.523438 36.820312 C 46.429688 35.625 45.289062 34.789062 43.773438 34.789062 C 42.257812 34.789062 41.261719 35.507812 41.261719 36.632812 C 41.261719 37.5625 42.015625 38.101562 43.796875 38.453125 L 45.976562 38.875 C 49.324219 39.523438 50.828125 41.035156 50.828125 43.722656 C 50.828125 47.257812 48.128906 49.394531 43.691406 49.394531 Z M 43.691406 49.394531 "/>
</g>
</svg>
