<?xml version="1.0" encoding="UTF-8"?>
<svg xmlns="http://www.w3.org/2000/svg" xmlns:xlink="http://www.w3.org/1999/xlink" viewBox="0 0 64 64" width="64px" height="64px">
<g id="surface37094105">
<path style=" stroke:none;fill-rule:nonzero;fill:rgb(100%,29.019609%,34.117648%);fill-opacity:1;" d="M 30.667969 5.332031 C 22.441406 5.332031 16 14.886719 16 27.078125 C 16 32.597656 17.339844 37.550781 19.546875 41.34375 C 19.421875 41.769531 19.332031 42.203125 19.332031 42.667969 C 19.332031 45.242188 21.425781 47.332031 24 47.332031 C 26.574219 47.332031 28.667969 45.242188 28.667969 42.667969 C 28.667969 40.089844 26.574219 38 24 38 C 23.9375 38 23.875 38.019531 23.8125 38.019531 C 22.292969 35.09375 21.332031 31.25 21.332031 27.078125 C 21.332031 18.183594 25.609375 10.667969 30.667969 10.667969 C 34.097656 10.667969 37.160156 14.125 38.78125 19.121094 C 40.761719 19.4375 42.738281 19.980469 44.703125 20.65625 C 42.894531 11.695312 37.375 5.332031 30.667969 5.332031 Z M 30.332031 22.667969 C 27.757812 22.667969 25.667969 24.757812 25.667969 27.332031 C 25.667969 29.910156 27.757812 32 30.332031 32 C 32.164062 32 33.734375 30.9375 34.5 29.402344 C 37.949219 29.554688 41.785156 30.554688 45.40625 32.515625 C 50.632812 35.347656 54.574219 39.695312 55.6875 43.863281 C 56.261719 46.007812 56.054688 47.886719 55.09375 49.453125 C 53.179688 52.566406 48.605469 53.816406 43.386719 53.15625 C 41.839844 54.730469 40.078125 56.179688 38.167969 57.488281 C 40.832031 58.269531 43.476562 58.671875 45.964844 58.671875 C 51.921875 58.671875 57.023438 56.496094 59.636719 52.25 C 61.375 49.421875 61.789062 46.050781 60.839844 42.488281 C 59.335938 36.871094 54.511719 31.386719 47.941406 27.828125 C 43.144531 25.226562 38.152344 24.019531 33.636719 24.035156 C 32.789062 23.1875 31.625 22.667969 30.332031 22.667969 Z M 10.925781 31.3125 C 7.035156 34.535156 4.242188 38.472656 3.167969 42.488281 C 2.214844 46.050781 2.632812 49.421875 4.371094 52.246094 C 6.976562 56.492188 12.082031 58.667969 18.042969 58.667969 C 22.554688 58.667969 27.554688 57.429688 32.332031 54.839844 C 36.894531 52.371094 40.578125 48.964844 42.925781 45.238281 C 45.058594 44.808594 46.667969 42.925781 46.667969 40.667969 C 46.667969 38.089844 44.574219 36 42 36 C 39.425781 36 37.332031 38.089844 37.332031 40.667969 C 37.332031 41.535156 37.589844 42.34375 38.003906 43.042969 C 36.121094 45.75 33.25 48.28125 29.796875 50.152344 C 21.480469 54.65625 11.910156 54.332031 8.90625 49.449219 C 7.945312 47.882812 7.746094 46.007812 8.316406 43.863281 C 8.898438 41.691406 10.261719 39.46875 12.160156 37.4375 C 11.582031 35.503906 11.167969 33.453125 10.925781 31.3125 Z M 10.925781 31.3125 "/>
</g>
</svg>
